<?xml version="1.0" standalone="no"?>
<!DOCTYPE svg PUBLIC "-//W3C//DTD SVG 20010904//EN"
 "http://www.w3.org/TR/2001/REC-SVG-20010904/DTD/svg10.dtd">
<svg version="1.0" xmlns="http://www.w3.org/2000/svg"
 width="700.000000pt" height="700.000000pt" viewBox="0 0 700.000000 700.000000"
 preserveAspectRatio="xMidYMid meet">
<metadata>
Created by potrace 1.11, written by Peter Selinger 2001-2013
</metadata>
<g transform="translate(0.000000,700.000000) scale(0.100000,-0.100000)"
fill="#000000" stroke="none">
<path d="M0 3500 l0 -3500 3500 0 3500 0 0 3500 0 3500 -3500 0 -3500 0 0
-3500z m1930 1775 l0 -105 -132 0 c-149 0 -198 -15 -243 -74 -59 -78 -59 -69
-66 -706 -5 -497 -8 -594 -22 -648 -32 -121 -80 -188 -162 -230 l-39 -20 41
-20 c71 -37 128 -124 160 -244 14 -54 17 -152 22 -658 7 -641 6 -623 62 -707
47 -68 91 -83 247 -83 l132 0 0 -106 0 -106 -197 4 c-165 4 -206 8 -247 24
-63 24 -148 102 -176 159 -53 109 -53 106 -59 775 l-6 625 -24 59 c-39 97
-127 175 -198 176 -22 0 -23 3 -23 100 0 72 4 102 13 104 6 2 32 9 57 16 61
16 133 90 156 162 16 47 19 119 24 663 7 636 8 653 52 756 36 83 135 160 232
179 22 4 121 8 219 9 l177 1 0 -105z m3535 89 c123 -31 192 -97 237 -224 22
-64 22 -73 28 -685 6 -542 8 -626 23 -670 34 -101 90 -159 175 -180 l47 -12 3
-100 3 -100 -40 -7 c-93 -15 -179 -128 -201 -266 -6 -38 -10 -294 -10 -620 0
-613 -3 -641 -61 -751 -38 -70 -95 -122 -171 -152 -46 -18 -78 -22 -250 -25
l-198 -4 0 106 0 106 132 0 c156 0 200 15 247 83 56 84 55 66 61 707 7 642 9
659 64 768 26 51 109 135 145 147 21 6 19 8 -18 27 -77 38 -140 131 -171 253
-9 36 -15 214 -20 630 -5 432 -10 589 -19 615 -22 60 -64 112 -110 137 -40 21
-57 23 -178 23 l-133 0 0 105 0 105 178 0 c128 0 194 -4 237 -16z m-1259 -646
c24 -11 358 -442 393 -505 9 -17 11 -225 9 -850 -3 -778 -4 -831 -22 -876 -25
-66 -105 -150 -174 -184 l-57 -28 -865 0 -865 0 -57 28 c-69 34 -149 118 -174
184 -18 45 -19 98 -22 876 -2 625 0 833 9 850 31 56 369 494 390 504 36 17
1398 18 1435 1z"/>
<path d="M2792 4393 l-81 -108 390 -3 c214 -1 564 -1 778 0 l390 3 -81 108
-80 107 -618 0 -618 0 -80 -107z"/>
<path d="M2600 3319 c0 -525 3 -747 11 -762 6 -12 21 -30 33 -39 19 -16 79
-18 846 -18 767 0 827 2 846 18 12 9 27 27 33 39 8 15 11 237 11 762 l0 741
-890 0 -890 0 0 -741z m503 499 c30 -15 46 -51 57 -126 12 -88 44 -153 102
-209 67 -65 126 -88 228 -88 102 0 161 23 228 88 58 56 90 121 102 209 12 85
33 118 84 135 30 11 43 10 69 -1 72 -30 90 -90 63 -214 -42 -199 -189 -361
-386 -423 -89 -28 -231 -28 -320 0 -197 62 -344 224 -386 423 -26 123 -9 183
61 214 30 13 63 10 98 -8z"/>
</g>
</svg>
